<svg width="182" height="40" viewBox="0 0 182 40" fill="none" xmlns="http://www.w3.org/2000/svg">
<path d="M177.139 9.26026C176.856 9.22508 176.57 9.29485 176.334 9.45664C176.099 9.61843 175.929 9.86125 175.857 10.14L171.541 22.7762L166.599 10.14C166.526 9.87088 166.362 9.63591 166.137 9.4754C165.911 9.31488 165.637 9.23882 165.362 9.26026H161.2C160.391 9.26026 160.056 9.76767 160.42 10.5574L168.913 29.9987L168.241 31.48C167.19 33.7961 166.138 34.6759 165.083 34.6759C164.448 34.6546 163.825 34.4969 163.255 34.2135C162.612 33.8902 162.066 33.9802 161.746 34.6227L160.557 36.9428C160.405 37.1908 160.354 37.4887 160.414 37.7739C160.475 38.0592 160.642 38.3098 160.881 38.4733C162.075 39.4762 163.583 40.0172 165.135 39.9996C169.208 39.9996 171.586 36.9428 173.782 31.2958L181.87 10.5574C182.19 9.76767 181.915 9.26026 181.09 9.26026H177.139ZM5.44357 19.9527C5.44357 16.5277 7.87013 14.2607 10.7537 14.2607C13.6372 14.2607 16.0112 16.5277 16.0112 19.9527C16.0112 23.3778 13.6332 25.6488 10.7537 25.6488C7.87417 25.6488 5.44357 23.3246 5.44357 19.9527ZM0 20.0018C0 26.2954 4.52957 30.6411 10.2482 30.6411C11.3077 30.6453 12.3568 30.4295 13.3306 30.0072C14.3045 29.5849 15.1824 28.9651 15.9101 28.1859C15.8656 32.5848 13.5766 34.5736 9.64151 34.5736C7.5385 34.5736 5.56895 33.927 3.28394 32.4457C3.16192 32.339 3.01689 32.2628 2.86048 32.2231C2.70408 32.1835 2.54066 32.1815 2.38334 32.2173C2.22603 32.2531 2.07921 32.3257 1.95467 32.4294C1.83013 32.533 1.73134 32.6647 1.66623 32.814L0.319497 35.5556C0.232732 35.6903 0.174226 35.8416 0.147603 36.0001C0.120979 36.1586 0.126805 36.321 0.16472 36.4771C0.202634 36.6333 0.27183 36.7798 0.36802 36.9078C0.46421 37.0358 0.585345 37.1424 0.723922 37.2211C3.42754 38.9859 6.56601 39.9485 9.78306 39.9996C17.3337 39.9996 21.5114 35.8789 21.5114 26.3895V10.3692C21.5252 10.2197 21.5062 10.069 21.4558 9.92786C21.4053 9.78669 21.3246 9.65855 21.2195 9.55259C21.1144 9.44664 20.9875 9.36549 20.8478 9.31496C20.7081 9.26442 20.559 9.24574 20.4114 9.26026H17.2973C17.1496 9.24574 17.0006 9.26442 16.8609 9.31496C16.7212 9.36549 16.5943 9.44664 16.4892 9.55259C16.384 9.65855 16.3034 9.78669 16.2529 9.92786C16.2025 10.069 16.1835 10.2197 16.1973 10.3692V11.5723C15.469 10.7372 14.5752 10.0666 13.5739 9.60412C12.5726 9.14163 11.4863 8.89759 10.3857 8.88789C4.80458 8.88789 0 13.7042 0 20.0018ZM38.016 20.0018C38.016 16.7118 40.4022 14.3221 43.3302 14.3221C46.2582 14.3221 48.6403 16.7282 48.6403 20.0182C48.6403 23.3082 46.2582 25.7102 43.3302 25.7102C40.4022 25.7102 38.016 23.2877 38.016 20.0018ZM32.4794 20.0018C32.4794 26.4345 37.3326 31.1117 43.3221 31.1117C44.7623 31.124 46.1904 30.8442 47.5219 30.2888C48.8535 29.7334 50.0616 28.9138 51.0749 27.8782C52.0883 26.8426 52.8862 25.6121 53.4218 24.2593C53.9573 22.9065 54.2196 21.4589 54.1931 20.0018C54.1931 13.5651 49.34 8.88789 43.3464 8.88789C41.9068 8.87725 40.4798 9.1584 39.1493 9.71476C37.8189 10.2711 36.6121 11.0914 35.6 12.1273C34.5879 13.1631 33.7911 14.3936 33.2565 15.746C32.722 17.0984 32.4605 18.5455 32.4875 20.0018H32.4794ZM86.0214 20.0018C86.0214 16.7282 88.3994 14.3057 91.3315 14.3057C94.2636 14.3057 96.6578 16.7118 96.6578 20.0018C96.6578 23.2918 94.2798 25.6938 91.3517 25.6938C88.4237 25.6938 86.0214 23.2877 86.0214 20.0018ZM80.4848 20.0018C80.4808 26.4345 85.3339 31.0994 91.3315 31.0994C92.7694 31.1079 94.1943 30.8252 95.5226 30.2681C96.8509 29.711 98.0556 28.8908 99.0659 27.8556C100.076 26.8204 100.872 25.5912 101.405 24.2403C101.939 22.8894 102.201 21.4442 102.174 19.9896C102.174 13.5528 97.3211 8.87561 91.3315 8.87561C89.8918 8.86659 88.4648 9.14932 87.1347 9.70713C85.8047 10.2649 84.5985 11.0865 83.5872 12.1235C82.5759 13.1604 81.7801 14.3917 81.2466 15.7448C80.713 17.0979 80.4527 18.5453 80.4808 20.0018H80.4848ZM110.222 20.0018C110.222 16.6218 112.6 14.3057 115.439 14.3057C118.278 14.3057 120.656 16.6218 120.656 20.0018C120.656 23.3819 118.274 25.6938 115.439 25.6938C112.604 25.6938 110.222 23.4269 110.222 20.0018ZM110.004 11.6214V10.3692C110.018 10.2197 109.999 10.069 109.948 9.92786C109.898 9.78669 109.817 9.65855 109.712 9.55259C109.607 9.44664 109.48 9.36549 109.34 9.31496C109.201 9.26442 109.051 9.24574 108.904 9.26026H105.838C105.691 9.24703 105.543 9.26666 105.404 9.31777C105.266 9.36888 105.14 9.45022 105.036 9.55602C104.931 9.66182 104.852 9.78951 104.802 9.93003C104.752 10.0706 104.733 10.2205 104.746 10.3692V38.5183C104.733 38.6679 104.752 38.8187 104.802 38.9601C104.853 39.1014 104.933 39.2298 105.038 39.336C105.143 39.4423 105.27 39.5238 105.41 39.5749C105.549 39.6259 105.698 39.6452 105.846 39.6313H109.231C109.379 39.6452 109.528 39.6259 109.668 39.5749C109.808 39.5238 109.935 39.4423 110.04 39.336C110.145 39.2298 110.225 39.1014 110.276 38.9601C110.326 38.8187 110.345 38.6679 110.331 38.5183V28.6442C111.847 30.1878 113.9 31.0692 116.05 31.0994C121.619 31.0994 126.181 26.2954 126.181 20.0018C126.181 13.7083 121.53 8.88789 116.07 8.88789C114.924 8.87307 113.788 9.10974 112.741 9.58162C111.694 10.0535 110.76 10.7494 110.004 11.6214ZM142.487 20.0018C142.487 16.5727 144.869 14.3057 147.704 14.3057C150.539 14.3057 152.922 16.5727 152.922 20.0018C152.922 23.431 150.544 25.6938 147.704 25.6938C144.865 25.6938 142.487 23.3778 142.487 20.0018ZM136.951 20.0018C136.951 26.2954 141.618 31.1117 147.061 31.1117C148.211 31.1284 149.35 30.8927 150.401 30.4208C151.452 29.9489 152.389 29.252 153.148 28.3782V29.6304C153.134 29.7795 153.153 29.9298 153.203 30.0706C153.254 30.2115 153.334 30.3394 153.439 30.4453C153.543 30.5512 153.67 30.6324 153.809 30.6832C153.948 30.734 154.097 30.7532 154.244 30.7393H157.322C157.469 30.7531 157.618 30.7339 157.757 30.6831C157.897 30.6323 158.023 30.5511 158.128 30.4453C158.233 30.3396 158.314 30.2117 158.365 30.0709C158.415 29.9301 158.435 29.7797 158.422 29.6304V10.3692C158.436 10.2197 158.417 10.069 158.366 9.92786C158.316 9.78669 158.235 9.65855 158.13 9.55259C158.025 9.44664 157.898 9.36549 157.758 9.31496C157.618 9.26442 157.469 9.24574 157.322 9.26026H154.256C154.109 9.24639 153.96 9.26554 153.821 9.31637C153.682 9.36719 153.555 9.44843 153.451 9.55431C153.346 9.66019 153.266 9.7881 153.216 9.92895C153.165 10.0698 153.146 10.2201 153.16 10.3692V11.7114C152.406 10.8373 151.478 10.134 150.437 9.64744C149.396 9.16091 148.265 8.90209 147.118 8.88789C141.537 8.88789 136.959 13.7042 136.959 20.0018H136.951ZM62.2412 20.0018C62.2412 16.6218 64.6192 14.3057 67.4582 14.3057C70.2973 14.3057 72.6713 16.6218 72.6713 20.0018C72.6713 23.3819 70.2933 25.6938 67.4582 25.6938C64.6232 25.6938 62.2412 23.4269 62.2412 20.0018ZM57.8329 0.409203C57.6854 0.395428 57.5367 0.414619 57.3973 0.465418C57.258 0.516218 57.1313 0.597384 57.0264 0.703175C56.9214 0.808966 56.8408 0.936797 56.79 1.07763C56.7393 1.21845 56.7198 1.36884 56.7329 1.51814V29.6304C56.7198 29.7797 56.7393 29.9301 56.79 30.0709C56.8408 30.2117 56.9214 30.3396 57.0264 30.4453C57.1313 30.5511 57.258 30.6323 57.3973 30.6831C57.5367 30.7339 57.6854 30.7531 57.8329 30.7393H60.8985C61.0457 30.7525 61.1939 30.7328 61.3328 30.6817C61.4716 30.6306 61.5978 30.5494 61.7022 30.4436C61.8067 30.3379 61.887 30.2103 61.9375 30.0698C61.988 29.9293 62.0074 29.7793 61.9945 29.6304V28.4273C63.321 29.9537 65.792 31.1117 68.2186 31.1117C73.5732 31.1117 78.1917 26.2013 78.1917 20.0018C78.1917 13.7042 73.5246 8.88789 68.0811 8.88789C65.9138 8.90441 63.8409 9.78692 62.3139 11.3431V1.52223C62.3282 1.3732 62.3098 1.22281 62.2601 1.08177C62.2104 0.94074 62.1306 0.812527 62.0263 0.706257C61.922 0.599988 61.7959 0.518274 61.6569 0.466931C61.5179 0.415588 61.3694 0.395878 61.222 0.409203H57.8329ZM129.857 0.409203C129.71 0.395428 129.561 0.414619 129.422 0.465418C129.282 0.516218 129.156 0.597384 129.051 0.703175C128.946 0.808966 128.865 0.936797 128.814 1.07763C128.764 1.21845 128.744 1.36884 128.757 1.51814V29.6304C128.744 29.7797 128.764 29.9301 128.814 30.0709C128.865 30.2117 128.946 30.3396 129.051 30.4453C129.156 30.5511 129.282 30.6323 129.422 30.6831C129.561 30.7339 129.71 30.7531 129.857 30.7393H133.287C133.434 30.7531 133.583 30.7339 133.722 30.6831C133.862 30.6323 133.988 30.5511 134.093 30.4453C134.198 30.3396 134.279 30.2117 134.33 30.0709C134.38 29.9301 134.4 29.7797 134.387 29.6304V1.52633C134.401 1.37638 134.382 1.22507 134.332 1.08322C134.282 0.941375 134.202 0.812485 134.097 0.705763C133.991 0.599041 133.864 0.517121 133.724 0.465856C133.584 0.41459 133.435 0.395245 133.287 0.409203H129.857ZM24.3424 1.71456V29.4626C24.3424 30.948 25.2564 31.5495 26.5829 30.948L28.3098 30.1378C29.4099 29.6304 29.9275 28.8897 29.9275 27.6826V3.47004C29.9275 2.26698 29.426 1.52633 28.3098 1.01482L26.5829 0.229154C26.2894 0.0872131 25.9698 0.00914721 25.6446 0C24.8358 0 24.3424 0.613804 24.3424 1.71456Z" fill="#FB0234"/>
</svg>
